#!OML:ASF F:\VICON\USERDATA\INSTALL\rory3\rory3.ASF
:FULLY-SPECIFIED
:DEGREES
27
root 0.28596974239661876 17.642794873688736 -6.722688016961356 5.691005164703775 0.5296536296580343 2.738780000480906
lfemur -3.093537136814332 -0.9273165770259215 -28.21723214707878
ltibia 33.71499550197154
lfoot -9.47226441577098 -5.450921378387517
ltoes -19.71811345436064
rfemur -44.07532339584071 -4.310123065520661 19.84296356138683
rtibia 117.58431975860549
rfoot 5.137883769220561 0.9647170100500393
rtoes 2.0132229590483757
lowerback 16.042878332853604 -0.7992548141443561 -2.59647348156386
upperback -0.6137484552929924 -1.6291670712142465 -0.14777931170004033
thorax -9.821639508535696 -0.13872882710250062 2.208133318658674
lowerneck -20.710474058042752 -5.390135377444411 -1.8951084173274795
upperneck 12.537207987551465 -7.557917747549841 4.982977147187891
head 7.85804845171018 -3.3868569132491277 0.8741842316568662
lclavicle -1.9521729781538692e-15 1.1013548979514818e-15
lhumerus -35.321895235775926 -11.299819106203746 96.079837433051
lradius 105.47918101521127
lwrist 48.7980376249409
lhand -18.686897649887694 6.7564259094877235
lfingers 7.125020000000001
lthumb 7.5164838474121645 36.77329200727867
rclavicle -1.952176533200704e-15 1.1013521049113477e-15
rhumerus -54.067439396948046 12.322755919352923 -103.33441433247746
rradius 107.1450474319347
rwrist -12.935257036735562
rhand -28.15300748165592 -94.06210108913146
rfingers 7.125020000000001
rthumb -2.7213477115262514 27.418117921935604
28
root 0.29069327867373784 17.814057714416116 -6.697715880454164 5.889711145317902 -1.4224228858424672 2.289463420300131
lfemur -0.3733687597249151 -0.8321737490525261 -28.06013685115188
ltibia 30.40685589083497
lfoot -1.3029312688969699 -11.01742453358428
ltoes -22.634193502515004
rfemur -46.96077309047983 -2.635375968679785 20.703424660208263
rtibia 112.06649261517278
rfoot 2.0684454364648133 1.0011340352287563
rtoes 5.335188694928545
lowerback 15.540225357037954 -0.9512712541504318 -2.5650982242007663
upperback -0.9580122390431777 -1.9669621799808505 0.39145091736524873
thorax -9.645356769560923 -0.32404692200012086 2.410841302078798
lowerneck -20.718795798202528 -5.1293028648056325 -1.8369078465112132
upperneck 12.916423186236424 -7.1516511848938755 4.762445839134673
head 7.882531056243509 -3.197880238012881 0.8653107832782143
lclavicle -1.952172978152004e-15 1.1013548979529471e-15
lhumerus -34.44671166341017 -10.833818332247612 95.59056338423571
lradius 107.18887973690562
lwrist 48.33958314529504
lhand -18.427280719119256 6.518697807947624
lfingers 7.125020000000001
lthumb 7.758277532847474 36.49277147043535
rclavicle -1.952176533174518e-15 1.1013521049319212e-15
rhumerus -54.800891056169085 12.288044228736466 -102.93171955086585
rradius 107.80361107232017
rwrist -12.837947729065277
rhand -27.56613145252961 -90.30618215649575
rfingers 7.125020000000001
rthumb -1.5815823799640403 24.05607125217652
29
root 0.30950569889611346 17.974640372790315 -5.557032425864775 5.974032593806757 -3.336346690237594 2.025561737398929
lfemur 3.293135239809285 -0.6432636871491073 -27.60589009081994
ltibia 26.768704713978394
lfoot 6.0909876796399045 -14.598372117505694
ltoes -21.367643061685573
rfemur -47.4778495200147 -0.3283607158403399 22.28222710463747
rtibia 105.38936614027426
rfoot 0.04083991669383913 -0.1487226834553539
rtoes 0.35312948880855366
lowerback 14.90782598496658 -0.9958806489553402 -2.439075348168035
upperback -1.2132571757831903 -1.955017523177469 0.9893109454277496
thorax -9.44921326073771 -0.4016923091294742 2.5479465969903754
lowerneck -20.707428645020357 -4.952153880832832 -1.9183395520896187
upperneck 13.392224385469644 -6.791291882706698 4.541127554771632
head 7.9614098280022505 -3.0036222895402007 0.8786797944209227
lclavicle -1.9521729781514462e-15 1.1013548979533855e-15
lhumerus -34.51962576170047 -10.598102547726967 95.2877392880842
lradius 109.25854160952547
lwrist 47.84980519481864
lhand -17.966705161160053 6.164515861421057
lfingers 7.125020000000001
lthumb 8.21546871641359 36.11961648597491
rclavicle -1.952176533170685e-15 1.1013521049349322e-15
rhumerus -55.70650251554478 12.096791814386284 -102.58751525594447
rradius 108.40762111342617
rwrist -13.66098675477509
rhand -27.031602078740956 -82.30809264560787
rfingers 7.125020000000001
rthumb -1.181595101757488 22.8639885740352
30
root 0.3313754476645076 18.11105889079862 -4.398318186265455 6.112834115395753 -4.8532853438882295 1.8649126791992217
lfemur 4.625690182065586 -1.3263066273875006 -28.27032163714395
ltibia 23.753513999987835
lfoot 10.899203788972997 -15.661891496928323
ltoes -21.27681894753519
rfemur -46.963228007531825 1.6914773764374114 23.6672915284241
rtibia 97.63706300837616
rfoot -1.0929236769561195 -1.8611089033065675
rtoes -1.0507467845863827
lowerback 14.156599108568312 -1.049545747444156 -2.332544247985108
upperback -1.5984379553217323 -1.990181030197838 1.4525729570288115
thorax -9.395190008832211 -0.47649697784600664 2.5715289575424958
lowerneck -20.623771461994444 -4.7332379441672 -1.9370685088615782
upperneck 13.931894546385937 -6.402037607840923 4.276961866828286
head 8.041815108716518 -2.804121825580194 0.8846799001107376
lclavicle -1.9521729781533553e-15 1.1013548979518853e-15
lhumerus -34.86848342077252 -10.4176020739631 95.19556828039676
lradius 112.08617130449905
lwrist 47.89718790388853
lhand -17.353127597934574 5.6199756781245656
lfingers 7.125020000000001
lthumb 8.781800688285188 35.43304225112243
rclavicle -1.952176533090102e-15 1.1013521049982429e-15
rhumerus -56.14877331004648 11.831000196466745 -102.08743969985488
rradius 108.93706968439999
rwrist -15.326697148457017
rhand -26.583220456794773 -81.37678048617447
rfingers 7.125020000000001
rthumb -1.5748663524988231 20.138265660311028
31
root 0.3579944924179028 18.23187817265506 -3.102609452493181 6.160556821008266 -5.785673475959284 2.1312056856629904
lfemur 7.2333687479566 -1.5650781702745353 -28.858794881693164
ltibia 22.5409831283276
lfoot 13.057124650184639 -16.047153980083852
ltoes -14.857380620713542
rfemur -46.2988219410597 3.0553307400697003 24.14627060688189
rtibia 89.10918317975539
rfoot -1.9190570554002857 -3.5866841698331315
rtoes -2.1384841846524236
lowerback 13.500409784813456 -1.146023345486751 -2.252072643219935
upperback -1.95881284527333 -2.002099304786296 1.866645328128452
thorax -9.29281480423417 -0.499863344547658 2.733291671448752
lowerneck -20.544340140906062 -4.550562504879568 -1.9848996209184055
upperneck 14.611460337360567 -6.096227996691555 3.969023025239594
head 8.128777447769785 -2.6616356570463626 0.8429224360265185
lclavicle -1.952172978155999e-15 1.1013548979498082e-15
lhumerus -35.71893774385664 -10.56290125480855 95.28009678478448
lradius 115.3019814608892
lwrist 47.741381422978115
lhand -17.41148553941989 5.458660182086742
lfingers 7.125020000000001
lthumb 8.64724504828375 35.210872603293545
rclavicle -1.9521765331449852e-15 1.1013521049551235e-15
rhumerus -56.76625604201387 11.224872542526876 -101.56511512793689
rradius 109.73415733954263
rwrist -16.225762339913533
rhand -26.08596216460543 -82.09267034007253
rfingers 7.125020000000001
rthumb -1.7783558602443998 18.90664568314935
32
root 0.3796280538165108 18.303619578702193 -1.353707127067203 6.076336682199517 -5.881903364477877 2.663842780010099
lfemur 6.337836345574743 -2.5155113754755414 -30.28511516809436
ltibia 23.72636920706865
lfoot 12.716061253724487 -16.50901183872128
ltoes -12.879286155372146
rfemur -45.645973303605004 3.425765352111726 24.021529607963185
rtibia 79.8834655813933
rfoot -2.3274433451496845 -4.787180563166327
rtoes -3.952725373021172
lowerback 13.049332966072111 -1.3276731729593845 -2.1547326408300584
upperback -2.26859041188491 -2.198358264073499 2.05475054489352
thorax -9.304143559465963 -0.5889534007250656 2.825182734978943
lowerneck -20.25613147092623 -4.312585292013286 -2.0170918117615826
upperneck 15.264132559757195 -5.828811228748328 3.6892046245773016
head 8.229413777739682 -2.5329048763167332 0.8141865565070652
lclavicle -1.9521729781547606e-15 1.1013548979507813e-15
lhumerus -36.59100514551233 -10.999201314829365 95.62637909029996
lradius 117.4421605290476
lwrist 47.2755480940109
lhand -17.002992830305832 5.06839867161828
lfingers 7.125020000000001
lthumb 8.94693921598801 34.653846379667385
rclavicle -1.9521765331477967e-15 1.1013521049529145e-15
rhumerus -57.09233578020758 10.818053573986216 -100.96529672397574
rradius 110.51842489227138
rwrist -16.392162915930093
rhand -25.715730258247714 -88.47810585362049
rfingers 7.125020000000001
rthumb -1.6141447356757492 18.960946311474704
33
root 0.4015636780034073 18.37654218368462 0.4359769505269826 6.025969040382597 -5.284636672180001 3.162290889526871
lfemur 7.732622337060089 -2.91610462447309 -29.925992380477002
ltibia 26.936704297727708
lfoot 11.277923591624898 -16.48693344702864
ltoes -9.40328306980732
rfemur -43.4409041898166 3.3321864289611534 23.776826841140323
rtibia 70.10446621946039
rfoot -2.7463486266386425 -4.761576936542247
rtoes -4.796947249170372
lowerback 12.81226380742225 -1.5050851575939967 -2.1276703655653755
upperback -2.378593260368867 -2.4717327653756778 2.020612190336358
thorax -9.286230037004128 -0.6725417776491087 2.8218071848168274
lowerneck -20.20732336165695 -4.147938791140158 -2.0640558184538973
upperneck 15.927317375682929 -5.5650901940337985 3.4387435976882292
head 8.34815205565555 -2.453669912151913 0.77800724399572
lclavicle -1.952172978154973e-15 1.1013548979506146e-15
lhumerus -37.514682272803554 -11.718297840076826 96.01614597290438
lradius 118.48171514042279
lwrist 46.445403345590044
lhand -16.954165504936622 4.72335398122614
lfingers 7.125020000000001
lthumb 9.001435321763408 34.29778027460993
rclavicle -1.952176533209978e-15 1.1013521049040617e-15
rhumerus -57.35404123829253 10.241984310993296 -100.44017704423692
rradius 111.1777664908559
rwrist -16.206000778916007
rhand -25.254087148255543 -88.78581530440091
rfingers 7.125020000000001
rthumb -1.2902231350163533 19.11864475800693
34
root 0.41043043536292223 18.42668690004935 1.8019800114348787 5.9646520912617556 -4.702738589273207 3.2545894172815406
lfemur 5.028971369670558 -3.5807301774404205 -30.15705615863997
ltibia 31.438526968032686
lfoot 9.933774532662309 -15.862532202818489
ltoes -8.911095914048932
rfemur -42.56600858467589 2.773398679082867 23.411772016155332
rtibia 60.51582864966897
rfoot -3.603253240903939 -3.827287026712692
rtoes -4.722440944936812
lowerback 12.81315619677758 -1.654743262955253 -2.061159455816796
upperback -2.2859876373740207 -2.608531429174655 1.8970059698944384
thorax -9.242498733055752 -0.74168099608167 2.7959727860233667
lowerneck -20.034192967425696 -3.888080658921063 -2.0791962546532683
upperneck 16.44531253118445 -5.379905875633793 3.2136853587687066
head 8.440274021531268 -2.396379841646072 0.7420588298966417
lclavicle -1.9521729781506444e-15 1.1013548979540154e-15
lhumerus -38.2701804696038 -12.386233402855446 96.4295893792868
lradius 118.83276734037904
lwrist 46.06377542285951
lhand -16.83084469314075 4.653158505848879
lfingers 7.125020000000001
lthumb 9.040488638923689 33.991442165133506
rclavicle -1.9521765331811494e-15 1.101352104926711e-15
rhumerus -57.38202508158406 9.589894925074407 -99.88204643969813
rradius 111.54278542316052
rwrist -16.174688852483023
rhand -24.947796823435713 -87.37950003492782
rfingers 7.125020000000001
rthumb -0.8981570103735923 19.126415458736076
